<svg width="80" height="60" viewBox="0 0 80 60" fill="none" xmlns="http://www.w3.org/2000/svg">
<g id="Clip path group">
<mask id="mask0_2_452" style="mask-type:luminance" maskUnits="userSpaceOnUse" x="0" y="0" width="80" height="60">
<g id="clip0_503_3486">
<path id="Vector" d="M74.2857 0H5.71429C2.55837 0 0 2.68629 0 6V54C0 57.3137 2.55837 60 5.71429 60H74.2857C77.4416 60 80 57.3137 80 54V6C80 2.68629 77.4416 0 74.2857 0Z" fill="white"/>
</g>
</mask>
<g mask="url(#mask0_2_452)">
<g id="Group">
<path id="Vector_2" d="M74.2857 0H5.71429C2.55837 0 0 2.68629 0 6V54C0 57.3137 2.55837 60 5.71429 60H74.2857C77.4416 60 80 57.3137 80 54V6C80 2.68629 77.4416 0 74.2857 0Z" fill="white"/>
<g id="Mask group">
<mask id="mask1_2_452" style="mask-type:alpha" maskUnits="userSpaceOnUse" x="0" y="0" width="80" height="60">
<g id="Group_2">
<path id="Vector_3" d="M74.2857 0H5.71429C2.55837 0 0 2.68629 0 6V54C0 57.3137 2.55837 60 5.71429 60H74.2857C77.4416 60 80 57.3137 80 54V6C80 2.68629 77.4416 0 74.2857 0Z" fill="white"/>
</g>
</mask>
<g mask="url(#mask1_2_452)">
<g id="Group_3">
<path id="Vector_4" fill-rule="evenodd" clip-rule="evenodd" d="M80 0H0V3.99999H80V0ZM80 8.00001H0V12H80V8.00001ZM0 16H80V20H0V16ZM80 24H0V28H80V24ZM0 32.0001H80V36H0V32.0001ZM80 39.9999H0V44.0001H80V39.9999ZM0 48H80V51.9999H0V48ZM80 56.0001H0V60H80V56.0001Z" fill="#D02F44"/>
<path id="Vector_5" d="M34.2857 0H0V28H34.2857V0Z" fill="#46467F"/>
<g id="Group_4" filter="url(#filter0_d_2_452)">
<path id="Vector_6" fill-rule="evenodd" clip-rule="evenodd" d="M7.61911 5.99996C7.61911 7.10453 6.76631 7.99997 5.71434 7.99997C4.66237 7.99997 3.80957 7.10453 3.80957 5.99996C3.80957 4.89542 4.66237 3.99998 5.71434 3.99998C6.76631 3.99998 7.61911 4.89542 7.61911 5.99996ZM15.2381 5.99996C15.2381 7.10453 14.3854 7.99997 13.3334 7.99997C12.2814 7.99997 11.4286 7.10453 11.4286 5.99996C11.4286 4.89542 12.2814 3.99998 13.3334 3.99998C14.3854 3.99998 15.2381 4.89542 15.2381 5.99996ZM20.9524 7.99997C22.0044 7.99997 22.8572 7.10453 22.8572 5.99996C22.8572 4.89542 22.0044 3.99998 20.9524 3.99998C19.9005 3.99998 19.0477 4.89542 19.0477 5.99996C19.0477 7.10453 19.9005 7.99997 20.9524 7.99997ZM30.4761 5.99996C30.4761 7.10453 29.6235 7.99997 28.5715 7.99997C27.5195 7.99997 26.6667 7.10453 26.6667 5.99996C26.6667 4.89542 27.5195 3.99998 28.5715 3.99998C29.6235 3.99998 30.4761 4.89542 30.4761 5.99996ZM9.52386 12C10.5758 12 11.4286 11.1046 11.4286 9.99998C11.4286 8.89541 10.5758 7.99997 9.52386 7.99997C8.47188 7.99997 7.61911 8.89541 7.61911 9.99998C7.61911 11.1046 8.47188 12 9.52386 12ZM19.0477 9.99998C19.0477 11.1046 18.1949 12 17.1429 12C16.0909 12 15.2381 11.1046 15.2381 9.99998C15.2381 8.89541 16.0909 7.99997 17.1429 7.99997C18.1949 7.99997 19.0477 8.89541 19.0477 9.99998ZM24.762 12C25.8139 12 26.6667 11.1046 26.6667 9.99998C26.6667 8.89541 25.8139 7.99997 24.762 7.99997C23.71 7.99997 22.8572 8.89541 22.8572 9.99998C22.8572 11.1046 23.71 12 24.762 12ZM30.4761 14C30.4761 15.1045 29.6235 16 28.5715 16C27.5195 16 26.6667 15.1045 26.6667 14C26.6667 12.8954 27.5195 12 28.5715 12C29.6235 12 30.4761 12.8954 30.4761 14ZM20.9524 16C22.0044 16 22.8572 15.1045 22.8572 14C22.8572 12.8954 22.0044 12 20.9524 12C19.9005 12 19.0477 12.8954 19.0477 14C19.0477 15.1045 19.9005 16 20.9524 16ZM15.2381 14C15.2381 15.1045 14.3854 16 13.3334 16C12.2814 16 11.4286 15.1045 11.4286 14C11.4286 12.8954 12.2814 12 13.3334 12C14.3854 12 15.2381 12.8954 15.2381 14ZM5.71434 16C6.76631 16 7.61911 15.1045 7.61911 14C7.61911 12.8954 6.76631 12 5.71434 12C4.66237 12 3.80957 12.8954 3.80957 14C3.80957 15.1045 4.66237 16 5.71434 16ZM11.4286 18C11.4286 19.1046 10.5758 20 9.52386 20C8.47188 20 7.61911 19.1046 7.61911 18C7.61911 16.8954 8.47188 16 9.52386 16C10.5758 16 11.4286 16.8954 11.4286 18ZM17.1429 20C18.1949 20 19.0477 19.1046 19.0477 18C19.0477 16.8954 18.1949 16 17.1429 16C16.0909 16 15.2381 16.8954 15.2381 18C15.2381 19.1046 16.0909 20 17.1429 20ZM26.6667 18C26.6667 19.1046 25.8139 20 24.762 20C23.71 20 22.8572 19.1046 22.8572 18C22.8572 16.8954 23.71 16 24.762 16C25.8139 16 26.6667 16.8954 26.6667 18ZM28.5715 24C29.6235 24 30.4761 23.1046 30.4761 22C30.4761 20.8954 29.6235 20 28.5715 20C27.5195 20 26.6667 20.8954 26.6667 22C26.6667 23.1046 27.5195 24 28.5715 24ZM22.8572 22C22.8572 23.1046 22.0044 24 20.9524 24C19.9005 24 19.0477 23.1046 19.0477 22C19.0477 20.8954 19.9005 20 20.9524 20C22.0044 20 22.8572 20.8954 22.8572 22ZM13.3334 24C14.3854 24 15.2381 23.1046 15.2381 22C15.2381 20.8954 14.3854 20 13.3334 20C12.2814 20 11.4286 20.8954 11.4286 22C11.4286 23.1046 12.2814 24 13.3334 24ZM7.61911 22C7.61911 23.1046 6.76631 24 5.71434 24C4.66237 24 3.80957 23.1046 3.80957 22C3.80957 20.8954 4.66237 20 5.71434 20C6.76631 20 7.61911 20.8954 7.61911 22Z" fill="url(#paint0_linear_2_452)"/>
</g>
</g>
</g>
</g>
</g>
</g>
</g>
<defs>
<filter id="filter0_d_2_452" x="3.80957" y="3.99998" width="26.6665" height="48.5714" filterUnits="userSpaceOnUse" color-interpolation-filters="sRGB">
<feFlood flood-opacity="0" result="BackgroundImageFix"/>
<feColorMatrix in="SourceAlpha" type="matrix" values="0 0 0 0 0 0 0 0 0 0 0 0 0 0 0 0 0 0 127 0" result="hardAlpha"/>
<feOffset dy="28.5714"/>
<feColorMatrix type="matrix" values="0 0 0 0 0 0 0 0 0 0 0 0 0 0 0 0 0 0 0.06 0"/>
<feBlend mode="normal" in2="BackgroundImageFix" result="effect1_dropShadow_2_452"/>
<feBlend mode="normal" in="SourceGraphic" in2="effect1_dropShadow_2_452" result="shape"/>
</filter>
<linearGradient id="paint0_linear_2_452" x1="3.80957" y1="3.99998" x2="3.80957" y2="24" gradientUnits="userSpaceOnUse">
<stop stop-color="white"/>
<stop offset="1" stop-color="#F0F0F0"/>
</linearGradient>
</defs>
</svg>
